<?xml version="1.0" standalone="no"?>
<!DOCTYPE svg PUBLIC "-//W3C//DTD SVG 20010904//EN"
 "http://www.w3.org/TR/2001/REC-SVG-20010904/DTD/svg10.dtd">
<svg version="1.0" xmlns="http://www.w3.org/2000/svg"
 width="4096.000000pt" height="4096.000000pt" viewBox="0 0 4096.000000 4096.000000"
 preserveAspectRatio="xMidYMid meet">
<metadata>
Created by potrace 1.14, written by Peter Selinger 2001-2017
</metadata>
<g transform="translate(0.000000,4096.000000) scale(0.100000,-0.100000)"
fill="#000000" stroke="none">
<path d="M16971 28499 c-67 -13 -131 -48 -187 -103 -45 -45 -201 -330 -1401
-2546 -743 -1372 -1363 -2520 -1379 -2550 -39 -78 -46 -209 -14 -293 49 -130
178 -230 315 -243 120 -12 123 -11 978 481 434 251 791 454 792 453 2 -2 -463
-862 -1033 -1913 -569 -1050 -1044 -1935 -1055 -1965 -28 -79 -21 -204 16
-281 33 -68 118 -152 184 -181 70 -32 210 -37 278 -11 28 11 275 149 550 308
275 158 622 358 770 443 149 85 276 159 283 165 6 5 12 7 12 5 0 -3 -464 -862
-1032 -1909 -567 -1047 -1043 -1930 -1056 -1963 -20 -50 -23 -72 -20 -145 2
-73 8 -97 35 -152 39 -79 102 -140 181 -177 49 -23 70 -27 152 -27 117 0 100
-8 492 218 166 96 497 286 733 422 237 136 450 259 474 273 l45 26 -46 -84
c-903 -1661 -2043 -3775 -2054 -3811 -25 -76 -16 -199 19 -271 92 -188 310
-266 496 -178 33 16 145 78 248 138 103 60 683 394 1288 743 l1100 634 4785 5
4785 5 67 32 c81 38 146 102 185 181 l28 57 0 1740 0 1740 -27 57 c-37 79 -98
142 -177 181 l-66 32 -2887 3 -2888 2 0 655 0 655 2643 2 2642 3 67 33 c82 40
157 119 190 200 l23 57 0 1585 0 1585 -23 57 c-33 81 -108 160 -190 200 l-67
33 -2642 3 -2643 2 0 690 0 690 2878 2 2877 3 57 23 c76 31 161 109 201 186
l32 61 0 1735 0 1735 -27 55 c-51 103 -140 175 -253 204 -53 14 -553 16 -4875
15 -2648 -1 -4835 -5 -4859 -10z m276 -3475 c-2 -2 -30 8 -63 21 -74 31 -184
33 -259 7 -38 -14 -1461 -826 -1594 -909 -24 -15 -24 -15 6 38 16 30 452 835
969 1788 l939 1735 3 -1339 c1 -736 1 -1340 -1 -1341z m3 -2099 l0 -1345 -39
20 c-22 11 -71 25 -109 32 -130 22 -113 30 -990 -475 -433 -250 -789 -453
-791 -451 -3 3 1921 3563 1927 3564 1 0 2 -605 2 -1345z m-4 -4772 c-2 -2 -25
7 -52 19 -39 18 -68 22 -144 23 -82 0 -103 -4 -150 -26 -39 -18 -1435 -817
-1585 -907 -5 -3 0 10 11 29 11 19 447 823 970 1787 l949 1754 3 -1338 c1
-735 0 -1339 -2 -1341z m4 -2072 l0 -1308 -137 -6 c-86 -3 -155 -12 -183 -22
-25 -8 -397 -218 -825 -465 -429 -247 -781 -447 -783 -445 -4 4 1918 3555
1924 3555 2 0 4 -589 4 -1309z"/>
</g>
</svg>
