<svg xmlns="http://www.w3.org/2000/svg" xmlns:xlink="http://www.w3.org/1999/xlink" width="500"
	height="200" class="svg-anim">
	<defs>
		<radialGradient xlink:href="#a" id="b" cx="128" cy="43.5" r="244.025" fx="128" fy="43.5"
			gradientTransform="matrix(1.02449 0 0 .4098 118.866 82.174)"
			gradientUnits="userSpaceOnUse" />
		<linearGradient id="a">
			<stop offset="0" style="stop-color:#0048c1;stop-opacity:1" />
			<stop offset="1" style="stop-color:#fff;stop-opacity:0" />
		</linearGradient>
	</defs>
	<ellipse cx="250" cy="100" rx="250" ry="100"
		style="opacity:.420455;fill:url(#b);stroke:none;stroke-width:24.489;stroke-linecap:round;stroke-linejoin:round;paint-order:fill markers stroke" />
	<path fill="none" stroke="#fff" stroke-linecap="round" stroke-linejoin="round"
		stroke-width="9.4"
		d="M373.299 98.45c-8.974 12.266-24.889 4.03-27.066 3.993-10.525-2.496-16.29 2.495-19.422 8.11-3.133 5.614-3.634 11.853-3.634 11.853-.018 9.608 6.87 15.46 14.395 16.258 16.446 1.745 23.542-23.463 13.815-33.272-2.514-2.535-5.154-2.95-5.154-2.95-8.52-1.497-14.034 1.498-17.417 4.867-3.383 3.369-4.636 7.112-4.636 7.112-9.883 38.03-48.274 33.552-37.504-27.869 8.074-37.65 23.78-25.771 23.293-12.417-2.188 33.919-29.024 72.548-51.08 63.243-4.766-2.768-10.379-9.244-11.542-17.313-1.164-8.068-2.005-18.167.579-33.388 8.074-37.748 23.78-25.88 23.241-12.906-.73 32.364-30.837 64.895-48.217 65.028-22.053 0-20.064-21.384-20.064-21.384 3.08-33.734 33.961-19.264 16.039 3.993-9.022 11.978-26.032 16.252-26.032 16.252-11.027 3.992-14.034-3.993-14.034-3.993-3.34-6.652 8.16-23.259-1.535-32.223-3.814-3.526-18.291-6.869-25.334 23.422-1.765 7.594-2.278 13.94-2.278 13.94l7.057-55.4c3.84-34.949 28.198-23.82 16.442.712-3.11 6.488-8.356 13.456-14.146 20.12-5.79 6.663-12.23 12.968-18.048 17.974-5.818 5.006-11.014 8.712-14.316 10.176"
		style="stroke:#566695;stroke-opacity:1" />
</svg>